<?xml version="1.0" standalone="no"?>
<!DOCTYPE svg PUBLIC "-//W3C//DTD SVG 20010904//EN"
 "http://www.w3.org/TR/2001/REC-SVG-20010904/DTD/svg10.dtd">
<svg version="1.0" xmlns="http://www.w3.org/2000/svg"
 width="400.000000pt" height="400.000000pt" viewBox="0 0 400.000000 400.000000"
 preserveAspectRatio="xMidYMid meet">
<metadata>
Created by potrace 1.14, written by Peter Selinger 2001-2017
</metadata>
<g transform="translate(0.000000,400.000000) scale(0.100000,-0.100000)"
fill="#000000" stroke="none">
<path d="M1824 3780 c-12 -5 -25 -13 -28 -19 -3 -5 -21 -13 -39 -16 -17 -4
-36 -11 -42 -15 -5 -4 -36 -13 -67 -20 -32 -6 -58 -16 -58 -21 0 -5 -8 -9 -17
-9 -10 0 -31 -14 -47 -31 -17 -16 -40 -32 -53 -35 -13 -4 -28 -14 -33 -24 -5
-10 -29 -22 -54 -29 -24 -6 -55 -20 -68 -31 -12 -11 -45 -35 -72 -52 -28 -18
-62 -44 -76 -58 -15 -14 -48 -43 -73 -65 -26 -22 -47 -43 -47 -47 0 -4 -16
-24 -36 -44 -19 -20 -38 -50 -41 -66 -3 -16 -16 -36 -29 -45 -13 -8 -24 -19
-24 -23 0 -9 -40 -57 -87 -107 -32 -33 -42 -66 -24 -77 5 -3 3 -23 -4 -43 -7
-21 -10 -39 -5 -41 5 -2 5 -15 1 -30 -4 -15 -4 -40 -1 -57 3 -16 3 -46 -1 -64
-4 -19 -6 -38 -3 -43 3 -4 0 -17 -6 -28 -8 -15 -8 -25 -1 -34 6 -8 8 -22 4
-31 -4 -11 -2 -16 3 -12 6 3 10 -22 12 -61 1 -61 7 -129 11 -142 1 -3 4 -27 7
-54 5 -48 25 -122 65 -236 28 -79 40 -101 71 -133 16 -15 28 -38 28 -51 0 -14
8 -32 18 -42 16 -17 17 -16 22 11 3 16 -1 108 -8 204 -8 97 -14 195 -14 219 0
23 -4 42 -10 42 -5 0 -1 15 10 33 12 22 17 44 14 66 -3 21 1 38 13 51 16 18
16 19 -3 17 -11 0 -18 -5 -16 -9 3 -4 -2 -8 -10 -8 -21 0 -21 39 1 70 12 16
13 25 5 28 -8 2 -6 11 5 29 16 25 16 25 -3 19 -18 -5 -20 -2 -16 29 2 19 8 38
13 41 5 3 9 12 9 20 0 8 -4 12 -10 9 -5 -3 -10 -2 -10 4 0 5 5 13 10 16 6 3
10 17 10 30 0 13 5 27 10 30 6 3 10 19 10 35 0 16 5 32 10 35 6 3 10 13 10 21
0 8 -5 12 -10 9 -6 -3 3 13 19 37 15 24 36 59 45 79 24 52 113 134 181 168 53
26 62 27 76 14 12 -10 28 -12 50 -8 19 3 88 7 154 9 120 2 190 -7 180 -24 -3
-5 6 -12 20 -16 25 -6 35 -24 13 -24 -6 0 -4 -6 5 -12 10 -7 19 -24 22 -38 3
-14 11 -30 20 -36 8 -6 12 -14 8 -17 -3 -4 16 -16 43 -28 48 -21 114 -74 114
-92 0 -14 32 -36 53 -37 10 0 27 -9 39 -20 12 -11 28 -20 35 -20 7 0 13 -4 13
-10 0 -5 6 -10 13 -10 6 0 22 -11 35 -25 46 -48 132 -56 252 -21 70 20 100 20
100 1 0 -11 10 -14 44 -11 32 3 49 0 63 -13 11 -10 29 -23 40 -30 12 -6 32
-25 44 -43 13 -17 17 -28 10 -24 -10 7 -11 4 -2 -12 15 -28 30 -36 62 -34 24
2 27 -1 24 -25 -1 -16 2 -31 9 -35 7 -5 6 -8 -5 -8 -8 0 -25 9 -37 21 -12 11
-27 17 -33 13 -6 -3 -38 -8 -72 -10 -34 -3 -69 -8 -77 -11 -8 -3 -31 -9 -50
-13 -68 -16 -113 -38 -152 -74 -21 -20 -42 -34 -47 -31 -5 2 -25 -2 -44 -10
-32 -13 -37 -13 -51 1 -9 8 -16 21 -16 28 0 8 -6 19 -14 25 -11 9 -15 7 -20
-11 -13 -49 -5 -73 42 -132 l47 -61 1 -100 c1 -131 1 -133 24 -140 24 -8 50
-83 32 -94 -12 -7 -11 -28 1 -48 13 -21 -10 -60 -40 -66 -15 -3 -56 -24 -90
-47 -57 -39 -65 -41 -94 -31 -45 16 -95 14 -136 -6 -46 -22 -51 -39 -20 -70
26 -26 26 -26 69 -10 37 14 48 15 70 5 25 -12 54 -53 50 -71 -1 -4 3 -17 9
-28 7 -15 7 -24 -1 -35 -17 -19 -5 -44 20 -44 11 0 19 3 19 8 -6 36 27 52 48
23 7 -11 19 -18 27 -15 23 9 66 -14 66 -35 0 -30 -29 -40 -147 -52 -60 -5
-136 -17 -171 -25 -63 -16 -80 -15 -156 4 -42 11 -106 5 -106 -10 0 -5 -5 -6
-10 -3 -6 4 -30 -14 -55 -39 -25 -26 -56 -51 -70 -56 -15 -6 -24 -14 -21 -18
3 -5 7 -19 10 -33 2 -13 10 -37 17 -54 18 -44 21 -75 10 -89 -11 -13 -5 -26
12 -26 5 0 7 6 4 14 -3 8 1 17 9 20 18 7 18 30 -1 46 -19 15 -19 30 -2 30 8 0
22 9 31 19 10 11 29 22 44 26 14 3 42 19 61 34 51 39 46 38 155 56 118 20 343
18 369 -3 8 -7 26 -12 39 -11 12 1 37 1 53 0 29 -2 29 -2 10 -17 -12 -9 -30
-12 -43 -9 -13 3 -38 1 -55 -4 -53 -16 -208 -43 -214 -37 -6 6 -53 -43 -53
-56 0 -6 -9 -17 -19 -26 -11 -10 -22 -27 -26 -39 -7 -26 19 -43 74 -48 90 -8
150 -15 195 -24 26 -5 69 -7 95 -6 l46 3 -52 -10 c-34 -7 -53 -16 -53 -25 0
-8 4 -12 8 -9 4 2 14 1 22 -4 11 -7 8 -10 -12 -15 -14 -4 -28 -15 -31 -26 -3
-10 -1 -17 4 -13 5 3 9 0 9 -5 0 -6 7 -11 15 -11 21 0 19 -9 -11 -37 -28 -26
-58 -25 -48 2 3 8 1 15 -6 15 -6 0 -8 -5 -4 -11 4 -7 -1 -9 -12 -7 -11 2 -18
9 -17 16 2 6 -4 9 -11 6 -8 -3 -12 -12 -9 -21 4 -11 0 -14 -18 -12 -13 1 -44
-4 -69 -11 -25 -7 -51 -15 -58 -16 -22 -4 -27 -14 -7 -14 14 0 15 -3 5 -15
-13 -16 -35 -21 -25 -6 7 13 -15 26 -24 14 -3 -5 -19 -19 -35 -31 -21 -16 -32
-19 -42 -12 -7 7 -14 7 -18 1 -7 -11 -87 -4 -101 10 -5 5 -15 9 -23 9 -8 0
-28 10 -45 22 -36 26 -49 28 -59 13 -5 -7 -11 -6 -16 3 -7 10 -14 8 -34 -7
-14 -11 -28 -18 -31 -14 -4 3 -12 1 -19 -4 -7 -6 -23 -14 -35 -17 -18 -6 -23
-3 -23 11 -1 17 -1 17 -14 0 -9 -12 -16 -14 -21 -8 -8 15 -35 14 -35 0 0 -7
-8 -18 -17 -25 -15 -11 -15 -15 -5 -22 8 -5 12 -12 10 -15 -1 -3 10 -19 25
-36 15 -18 25 -36 22 -40 -2 -5 1 -14 9 -20 8 -7 17 -27 20 -45 4 -19 13 -37
21 -40 8 -3 12 -12 9 -21 -4 -10 0 -15 14 -15 21 0 79 -49 74 -62 -1 -5 1 -7
6 -7 19 3 33 -2 28 -10 -4 -5 8 -15 24 -23 23 -10 30 -18 26 -33 -7 -28 3 -39
50 -53 23 -7 47 -19 54 -27 7 -8 22 -15 33 -15 11 0 17 -3 13 -7 -4 -4 17 -19
45 -33 38 -18 53 -31 54 -46 1 -11 11 -34 23 -51 12 -17 19 -33 15 -37 -3 -3
-1 -6 5 -6 18 0 14 -18 -5 -22 -11 -2 -2 -10 25 -23 48 -23 51 -29 20 -41 -14
-5 132 -10 351 -11 206 -2 375 -2 377 -1 1 2 6 95 9 208 7 200 7 207 -20 313
-14 60 -35 129 -45 153 -11 24 -17 44 -15 44 10 0 50 -90 71 -160 13 -41 23
-66 23 -54 2 47 -50 187 -91 246 -24 35 -23 36 18 83 59 67 160 226 187 295
14 36 30 99 36 140 7 41 18 101 25 132 7 32 15 99 16 150 2 51 4 103 4 116 1
12 4 22 8 22 4 0 12 25 18 56 13 59 5 269 -11 312 -5 12 -5 22 -1 22 4 0 6 45
6 100 -1 62 2 100 8 100 6 0 8 12 5 28 -3 15 0 52 8 83 15 66 12 317 -4 347
-6 12 -11 32 -11 46 0 14 -5 28 -10 31 -8 5 -7 11 1 21 9 11 9 14 0 14 -7 0
-9 4 -6 10 3 5 -1 20 -9 32 -9 12 -16 33 -16 47 0 13 -9 39 -21 57 -11 19 -18
34 -15 34 4 0 -1 11 -10 24 -8 14 -15 27 -15 31 1 3 -6 19 -14 36 -9 17 -14
36 -12 42 2 7 -6 21 -19 32 -12 11 -30 36 -40 55 -11 19 -32 52 -49 73 -56 71
-210 222 -252 247 -24 14 -43 30 -43 35 0 11 -55 35 -79 35 -20 0 -44 27 -28
33 6 2 -7 7 -30 10 -23 4 -57 16 -75 26 -51 30 -110 42 -210 43 -51 0 -111 5
-133 10 -22 6 -49 11 -60 13 -11 1 -31 5 -45 8 -14 4 -35 2 -46 -3z m-863
-1463 c-10 -9 -11 -8 -5 6 3 10 9 15 12 12 3 -3 0 -11 -7 -18z m2046 -79 c-3
-8 -6 -5 -6 6 -1 11 2 17 5 13 3 -3 4 -12 1 -19z m10 -90 c-2 -13 -4 -3 -4 22
0 25 2 35 4 23 2 -13 2 -33 0 -45z m10 -75 c-3 -10 -5 -4 -5 12 0 17 2 24 5
18 2 -7 2 -21 0 -30z m-495 -78 c93 -27 111 -28 272 -20 59 3 87 9 107 24 29
21 63 19 88 -7 13 -12 16 -12 28 4 12 16 13 -3 12 -131 -1 -83 -4 -142 -6
-132 -6 24 -23 22 -23 -3 0 -11 -5 -20 -11 -20 -5 0 -8 -3 -6 -7 3 -5 -1 -14
-9 -21 -8 -7 -14 -10 -14 -6 0 3 -7 1 -15 -6 -11 -9 -22 -9 -46 -1 -29 10 -30
9 -18 -6 12 -15 12 -16 -3 -10 -10 3 -20 2 -22 -2 -3 -5 -23 -4 -45 2 -22 6
-38 14 -35 19 3 4 0 8 -5 8 -6 0 -11 -4 -11 -10 0 -20 -21 -9 -30 15 -5 14
-21 30 -36 35 -15 6 -31 23 -37 40 -7 18 -21 33 -34 36 -13 4 -23 10 -23 14 0
8 -38 23 -52 21 -5 -1 -8 5 -8 13 0 24 -50 76 -94 98 -43 21 -86 56 -86 70 0
12 99 2 162 -17z m-62 -145 c0 -5 -2 -10 -4 -10 -3 0 -8 5 -11 10 -3 6 -1 10
4 10 6 0 11 -4 11 -10z m358 -554 c0 -18 -5 -26 -13 -22 -7 2 -12 -3 -11 -11
1 -18 -14 -26 -30 -15 -19 12 -19 44 1 90 l18 43 17 -29 c10 -15 18 -41 18
-56z m-48 -82 c0 -2 -7 -4 -15 -4 -8 0 -15 4 -15 10 0 5 7 7 15 4 8 -4 15 -8
15 -10z m-486 -29 c-4 -8 -12 -15 -20 -15 -8 0 -14 7 -14 15 0 8 9 15 20 15
13 0 18 -5 14 -15z m510 -860 c4 -36 4 -118 0 -183 -5 -95 -10 -119 -22 -119
-12 0 -13 14 -8 81 3 45 6 127 6 184 0 115 14 136 24 37z m-63 -247 c-2 -19
-7 -25 -18 -21 -13 5 -14 21 -8 102 10 144 19 161 25 46 3 -55 3 -112 1 -127z
m-59 -3 c-5 -28 -22 -44 -22 -21 0 21 11 46 20 46 4 0 5 -11 2 -25z"/>
<path d="M1505 2470 c-3 -5 -12 -7 -19 -4 -8 3 -17 1 -21 -5 -4 -7 5 -11 22
-12 19 0 23 -3 13 -7 -9 -4 -33 -20 -53 -36 -27 -21 -35 -32 -27 -40 16 -16
90 -36 90 -24 0 5 9 6 20 3 12 -4 27 -2 34 4 10 9 15 8 20 -4 3 -8 12 -15 21
-15 16 0 56 -22 88 -49 16 -13 12 -16 -52 -36 -76 -24 -128 -53 -180 -100 -43
-39 -95 -104 -88 -111 8 -9 129 25 147 40 10 9 50 16 115 19 55 2 111 8 124
12 16 6 22 5 18 -2 -4 -6 -31 -16 -59 -23 -79 -18 -88 -21 -88 -29 0 -13 99
-3 133 14 35 18 47 19 47 5 0 -5 -7 -10 -15 -10 -8 0 -15 -4 -15 -9 0 -4 -18
-21 -39 -36 -35 -23 -38 -29 -28 -46 8 -13 13 -15 19 -6 4 7 8 8 8 3 0 -5 6
-3 13 3 8 6 17 8 20 5 10 -10 92 42 121 76 14 17 23 37 20 45 -4 10 4 18 22
25 16 6 43 26 60 44 25 27 30 39 26 69 -3 28 0 38 12 43 40 15 57 124 20 124
-8 0 -12 5 -9 10 4 6 -11 10 -37 10 -26 0 -55 8 -73 20 -25 16 -133 39 -157
32 -25 -6 -218 -7 -218 0 0 11 -48 10 -55 -2z m40 -20 c-3 -5 -12 -10 -18 -10
-7 0 -6 4 3 10 19 12 23 12 15 0z m30 -25 c-40 -19 -67 -18 -35 0 14 8 34 14
45 14 15 -1 13 -4 -10 -14z m-25 -35 c0 -5 -7 -7 -15 -4 -8 4 -15 8 -15 10 0
2 7 4 15 4 8 0 15 -4 15 -10z m-47 -27 c-7 -2 -19 -2 -25 0 -7 3 -2 5 12 5 14
0 19 -2 13 -5z m98 -261 c-7 -2 -18 1 -23 6 -8 8 -4 9 13 5 13 -4 18 -8 10
-11z"/>
<path d="M1415 2280 c-3 -6 1 -7 9 -4 18 7 21 14 7 14 -6 0 -13 -4 -16 -10z"/>
<path d="M856 1835 c-6 -63 3 -123 24 -155 8 -13 10 -13 10 1 0 9 6 22 14 28
11 10 46 96 46 115 0 12 -63 76 -75 76 -8 0 -15 -23 -19 -65z"/>
<path d="M1814 1693 c-71 -74 -76 -81 -69 -92 3 -6 1 -11 -4 -11 -6 0 -11 -8
-11 -17 0 -13 7 -10 31 13 33 30 119 138 119 148 0 16 -24 1 -66 -41z"/>
<path d="M3110 1706 c0 -3 4 -14 9 -24 5 -9 12 -25 15 -35 3 -10 11 -17 18
-15 12 4 33 56 26 64 -8 7 -68 17 -68 10z"/>
<path d="M3292 1520 c0 -14 2 -19 5 -12 2 6 2 18 0 25 -3 6 -5 1 -5 -13z"/>
<path d="M3100 1511 c0 -6 5 -13 10 -16 6 -3 10 1 10 9 0 9 -4 16 -10 16 -5 0
-10 -4 -10 -9z"/>
<path d="M1107 1294 c-11 -14 -17 -28 -14 -30 11 -11 47 17 47 36 0 27 -11 25
-33 -6z"/>
<path d="M3170 1299 c0 -5 5 -7 10 -4 6 3 10 8 10 11 0 2 -4 4 -10 4 -5 0 -10
-5 -10 -11z"/>
<path d="M3357 1044 c-8 -8 1 -24 14 -24 5 0 9 7 9 15 0 15 -12 20 -23 9z"/>
<path d="M2295 1000 c-3 -5 -1 -10 4 -10 6 0 11 5 11 10 0 6 -2 10 -4 10 -3 0
-8 -4 -11 -10z"/>
<path d="M3725 900 c3 -5 11 -10 16 -10 6 0 7 5 4 10 -3 6 -11 10 -16 10 -6 0
-7 -4 -4 -10z"/>
<path d="M2857 853 c-13 -12 -7 -33 8 -33 8 0 15 9 15 20 0 20 -11 26 -23 13z"/>
<path d="M1620 840 c-12 -8 -11 -10 8 -10 12 0 22 5 22 10 0 13 -11 13 -30 0z"/>
<path d="M3265 790 c-7 -12 2 -30 16 -30 12 0 12 27 0 35 -5 3 -12 1 -16 -5z"/>
<path d="M2911 753 c-1 -12 4 -25 9 -28 12 -7 12 2 0 30 -8 19 -9 19 -9 -2z"/>
<path d="M1201 643 c-1 -75 3 -113 10 -113 7 0 8 12 4 33 -5 23 -4 29 4 21 6
-5 31 -95 55 -200 42 -178 71 -283 83 -294 8 -7 -36 177 -63 268 -3 9 2 5 11
-10 8 -15 38 -94 66 -175 52 -151 68 -189 69 -165 0 7 -4 21 -9 30 -13 25 -42
126 -34 118 4 -4 24 -40 44 -79 l36 -72 84 -2 c67 -2 80 -1 64 8 -41 24 -56
42 -43 51 9 5 7 8 -7 9 -11 1 -24 1 -28 0 -4 -1 -10 6 -13 14 -3 8 -11 12 -17
8 -5 -3 -7 -1 -4 5 11 17 -4 42 -24 42 -13 0 -19 7 -19 24 0 18 -8 27 -30 35
-20 7 -30 17 -30 30 0 13 -7 21 -17 21 -9 0 -14 3 -10 6 3 4 -6 25 -22 48 -15
22 -35 55 -44 71 -23 46 -87 242 -101 315 l-14 65 -1 -112z m183 -439 c3 -8 2
-12 -4 -9 -6 3 -10 10 -10 16 0 14 7 11 14 -7z m75 -114 c11 -24 11 -24 -3 -6
-9 11 -16 24 -16 30 0 12 5 7 19 -24z"/>
<path d="M3277 683 c-12 -11 -8 -23 8 -23 8 0 15 7 15 15 0 16 -12 20 -23 8z"/>
<path d="M3610 650 c-13 -8 -12 -10 3 -10 9 0 17 5 17 10 0 12 -1 12 -20 0z"/>
<path d="M3600 570 c0 -5 5 -10 11 -10 5 0 7 5 4 10 -3 6 -8 10 -11 10 -2 0
-4 -4 -4 -10z"/>
<path d="M3962 564 c2 -11 11 -20 22 -22 13 -3 17 1 14 14 -2 11 -11 20 -22
22 -13 3 -17 -1 -14 -14z"/>
<path d="M3290 561 c0 -6 5 -13 10 -16 6 -3 10 1 10 9 0 9 -4 16 -10 16 -5 0
-10 -4 -10 -9z"/>
<path d="M2940 550 c0 -5 7 -10 16 -10 8 0 12 5 9 10 -3 6 -10 10 -16 10 -5 0
-9 -4 -9 -10z"/>
<path d="M2977 476 c-4 -10 -5 -21 -2 -24 9 -9 17 6 13 25 -3 17 -4 17 -11 -1z"/>
<path d="M3422 478 c6 -18 28 -21 28 -4 0 9 -7 16 -16 16 -9 0 -14 -5 -12 -12z"/>
<path d="M2848 390 c3 -61 11 -116 24 -153 12 -31 19 -60 16 -62 -3 -3 -11 14
-18 37 l-14 43 -7 -49 c-7 -46 -13 -149 -10 -188 1 -11 9 -18 20 -18 16 0 18
6 13 46 -3 34 -2 45 7 40 6 -4 11 -26 12 -49 0 -33 2 -38 9 -22 7 17 9 17 9 3
1 -15 10 -18 51 -18 45 0 50 2 51 23 l0 22 11 -22 c13 -27 42 -32 34 -5 -26
84 -76 240 -81 255 -4 9 -3 17 3 17 5 0 31 -65 58 -145 32 -96 53 -145 62
-145 17 0 11 49 -15 117 -8 23 -13 47 -11 54 2 7 18 -28 34 -79 22 -69 33 -92
47 -92 9 0 17 4 17 8 0 23 -63 191 -82 217 l-21 30 30 -28 c32 -29 49 -68 78
-170 13 -44 21 -57 36 -57 18 0 19 2 3 38 -40 95 -54 135 -52 150 2 9 -7 21
-20 27 -31 16 -38 25 -15 19 23 -6 72 -43 57 -44 -21 0 21 -130 47 -146 12 -7
11 0 -7 63 -9 30 -13 57 -11 60 8 7 31 -51 46 -114 8 -31 18 -53 26 -53 11 0
8 17 -10 71 -15 44 -20 69 -12 66 6 -2 15 -17 19 -33 15 -62 33 -104 45 -104
16 0 16 6 2 32 -6 11 -8 22 -6 25 3 3 13 -9 22 -26 17 -34 63 -46 50 -13 -3 9
-8 31 -11 47 -3 25 0 21 18 -17 14 -31 28 -48 39 -48 17 0 17 3 -1 46 -11 25
-20 52 -20 60 0 9 -12 14 -37 14 -21 0 -47 7 -57 15 -11 8 -26 15 -34 15 -8 0
-34 16 -58 35 -23 19 -46 35 -50 35 -4 0 -16 8 -26 17 -11 10 -29 18 -41 19
-30 2 -58 15 -52 23 2 4 -28 24 -68 45 -40 20 -60 34 -44 30 38 -9 34 2 -9 24
-39 20 -28 34 16 21 14 -4 19 -7 12 -8 -29 -2 12 -26 47 -27 20 -1 30 0 23 3
-13 5 -7 23 9 23 6 0 7 -4 4 -10 -4 -6 1 -7 12 -4 16 6 15 4 -2 -10 -14 -12
-16 -16 -5 -15 35 3 51 -1 44 -13 -5 -8 -2 -9 11 -4 10 3 27 0 40 -8 26 -17
126 -48 133 -41 5 5 -76 44 -93 45 -5 0 -32 9 -60 20 -45 18 -46 19 -14 14 35
-6 36 -5 32 20 -4 21 -8 24 -19 15 -17 -14 -80 -7 -146 16 -26 8 -54 12 -65 9
-15 -5 -16 -4 -3 5 12 10 11 11 -10 10 -46 -4 -59 1 -62 24 -2 12 -2 -21 0
-73z m169 -6 c-3 -3 -12 -4 -19 -1 -8 3 -5 6 6 6 11 1 17 -2 13 -5z m47 -164
c7 -35 7 -34 -14 9 -24 51 -25 61 -6 41 8 -8 17 -31 20 -50z"/>
<path d="M2897 456 c-4 -10 0 -12 14 -9 27 7 34 23 11 23 -11 0 -22 -6 -25
-14z"/>
<path d="M3717 459 c7 -7 15 -10 18 -7 3 3 -2 9 -12 12 -14 6 -15 5 -6 -5z"/>
<path d="M3321 379 c-1 -20 24 -43 39 -34 15 9 2 25 -14 19 -8 -3 -16 2 -19
13 -4 14 -5 15 -6 2z"/>
<path d="M3670 381 c0 -5 7 -11 15 -15 9 -3 15 0 15 9 0 8 -7 15 -15 15 -8 0
-15 -4 -15 -9z"/>
<path d="M1010 370 c0 -5 5 -10 10 -10 6 0 10 5 10 10 0 6 -4 10 -10 10 -5 0
-10 -4 -10 -10z"/>
<path d="M3220 361 c0 -11 5 -23 10 -26 6 -3 10 3 10 14 0 11 -4 23 -10 26 -5
3 -10 -3 -10 -14z"/>
<path d="M3556 362 c-5 -9 18 -42 30 -42 8 0 4 16 -9 35 -9 11 -16 14 -21 7z"/>
<path d="M903 340 c-24 -11 -43 -22 -43 -25 0 -6 57 17 87 34 29 17 1 11 -44
-9z"/>
<path d="M2984 348 c-4 -7 -4 -10 0 -6 9 7 145 -37 160 -52 15 -15 3 -12 -50
10 -26 11 -52 19 -58 16 -6 -3 -5 -5 2 -5 8 -1 25 -10 39 -21 14 -11 32 -20
39 -20 8 0 46 -21 86 -47 39 -27 76 -51 82 -54 53 -28 81 -39 101 -39 30 0 55
-10 55 -22 0 -23 44 -108 56 -108 10 0 10 9 -2 45 -24 68 -10 77 20 13 14 -32
31 -58 37 -58 7 0 8 7 4 18 -4 9 -9 33 -12 52 -7 45 11 30 30 -25 8 -22 21
-41 30 -43 15 -3 15 0 2 37 -8 23 -14 45 -13 49 1 12 -153 61 -282 90 -38 8
-103 54 -89 62 8 6 8 9 0 14 -6 4 -11 2 -11 -4 0 -6 -11 -5 -30 5 -16 9 -30
17 -30 20 0 9 59 -4 87 -19 41 -20 158 -47 180 -40 14 4 15 3 5 -4 -10 -7 4
-16 54 -36 51 -19 71 -23 79 -14 7 8 7 9 -2 4 -15 -8 -45 3 -37 15 3 5 -3 6
-12 2 -12 -4 -15 -3 -10 5 4 8 2 10 -8 6 -8 -3 -23 -1 -33 6 -16 9 -15 10 7 5
19 -5 15 0 -15 19 -22 14 -47 25 -55 25 -10 0 -11 -2 -2 -6 6 -2 12 -9 12 -14
0 -5 -12 -3 -27 5 -16 7 -66 26 -113 40 -47 14 -95 33 -108 41 -12 9 -26 14
-30 11 -5 -3 -32 4 -61 14 -60 23 -67 24 -77 8z m196 -64 c0 -2 -9 0 -20 6
-11 6 -20 13 -20 16 0 2 9 0 20 -6 11 -6 20 -13 20 -16z"/>
<path d="M1000 330 c0 -5 5 -10 10 -10 6 0 10 5 10 10 0 6 -4 10 -10 10 -5 0
-10 -4 -10 -10z"/>
<path d="M3320 313 c0 -5 12 -13 26 -20 22 -10 25 -10 20 3 -3 9 -6 18 -6 20
0 2 -9 4 -20 4 -11 0 -20 -3 -20 -7z"/>
<path d="M3600 280 c0 -5 5 -10 11 -10 5 0 7 5 4 10 -3 6 -8 10 -11 10 -2 0
-4 -4 -4 -10z"/>
<path d="M855 261 c-23 -12 -33 -20 -22 -20 18 -1 77 25 77 34 0 9 -14 5 -55
-14z"/>
<path d="M3478 269 c-10 -5 -15 -16 -12 -24 7 -16 34 -21 34 -6 0 5 3 16 6 25
7 18 -3 20 -28 5z"/>
<path d="M3520 274 c0 -7 27 -34 33 -34 3 0 3 9 0 20 -5 17 -33 30 -33 14z"/>
<path d="M3414 255 c11 -8 22 -12 25 -9 6 6 -19 24 -34 24 -5 -1 -1 -7 9 -15z"/>
<path d="M1215 230 c10 -11 20 -20 23 -20 3 0 -3 9 -13 20 -10 11 -20 20 -23
20 -3 0 3 -9 13 -20z"/>
<path d="M3230 237 c0 -3 15 -14 33 -24 30 -18 57 -26 172 -53 28 -7 67 -18
89 -26 21 -8 40 -13 43 -11 6 7 -150 67 -230 89 -39 11 -80 22 -89 25 -10 3
-18 3 -18 0z"/>
<path d="M836 194 c-63 -25 -102 -53 -56 -39 38 11 110 46 116 56 3 5 4 9 2 8
-2 0 -30 -12 -62 -25z"/>
<path d="M3595 200 c3 -5 8 -10 11 -10 2 0 4 5 4 10 0 6 -5 10 -11 10 -5 0 -7
-4 -4 -10z"/>
<path d="M1005 190 c-3 -6 1 -7 9 -4 18 7 21 14 7 14 -6 0 -13 -4 -16 -10z"/>
<path d="M1066 182 c-2 -4 -1 -14 5 -22 7 -12 9 -10 9 8 0 23 -5 28 -14 14z"/>
<path d="M3676 183 c-11 -11 -6 -23 9 -23 8 0 15 4 15 9 0 13 -16 22 -24 14z"/>
<path d="M1020 150 c-11 -7 -12 -12 -4 -20 8 -8 13 -6 17 9 3 12 4 21 4 21 -1
0 -9 -5 -17 -10z"/>
<path d="M3760 130 c0 -5 9 -10 20 -10 11 0 20 5 20 10 0 6 -9 10 -20 10 -11
0 -20 -4 -20 -10z"/>
<path d="M784 106 c-28 -13 -55 -29 -58 -35 -4 -6 20 2 53 19 34 17 61 33 61
36 0 6 -1 6 -56 -20z"/>
<path d="M981 114 c0 -11 3 -14 6 -6 3 7 2 16 -1 19 -3 4 -6 -2 -5 -13z"/>
<path d="M3660 122 c8 -5 26 -13 40 -16 17 -5 20 -4 10 2 -8 5 -26 13 -40 16
-17 5 -20 4 -10 -2z"/>
<path d="M3606 112 c-3 -6 -1 -14 5 -17 15 -10 25 3 12 16 -7 7 -13 7 -17 1z"/>
<path d="M569 89 l-24 -20 28 17 c15 9 27 18 27 20 0 8 -8 4 -31 -17z"/>
<path d="M1034 53 c7 -37 12 -49 14 -34 5 31 -7 91 -17 91 -4 0 -3 -26 3 -57z"/>
<path d="M3670 90 c-9 -6 -10 -10 -3 -10 6 0 15 5 18 10 8 12 4 12 -15 0z"/>
<path d="M3745 90 c27 -12 43 -12 25 0 -8 5 -22 9 -30 9 -10 0 -8 -3 5 -9z"/>
<path d="M992 48 c11 -51 24 -67 14 -19 -3 18 -6 40 -6 47 0 8 -4 14 -9 14 -5
0 -5 -18 1 -42z"/>
<path d="M1146 54 c12 -49 23 -63 24 -28 0 17 -7 37 -16 45 -13 11 -14 9 -8
-17z"/>
<path d="M3745 70 c6 -10 94 -34 100 -28 3 3 -20 12 -50 20 -30 8 -52 12 -50
8z"/>
<path d="M820 60 c-9 -6 -10 -10 -3 -10 6 0 15 5 18 10 8 12 4 12 -15 0z"/>
<path d="M3634 38 c8 -18 20 -34 26 -36 7 -3 11 -1 8 4 -20 43 -32 64 -39 64
-4 0 -2 -14 5 -32z"/>
<path d="M3677 60 c12 -5 29 -19 37 -32 13 -20 24 -24 68 -25 29 0 42 2 28 4
-13 3 -33 11 -44 19 -11 8 -28 14 -37 14 -9 0 -22 7 -29 15 -7 8 -20 15 -29
14 -11 0 -9 -3 6 -9z"/>
<path d="M3710 66 c0 -2 7 -7 16 -10 8 -3 12 -2 9 4 -6 10 -25 14 -25 6z"/>
<path d="M892 51 c-11 -7 -11 -9 1 -14 16 -6 27 0 27 15 0 10 -11 10 -28 -1z"/>
<path d="M574 35 c-18 -14 -18 -14 4 -8 12 3 22 9 22 14 0 12 -3 11 -26 -6z"/>
<path d="M780 40 c-9 -6 -10 -10 -3 -10 6 0 15 5 18 10 8 12 4 12 -15 0z"/>
<path d="M3785 30 c3 -5 11 -10 16 -10 6 0 7 5 4 10 -3 6 -11 10 -16 10 -6 0
-7 -4 -4 -10z"/>
<path d="M842 21 c-11 -7 -10 -10 3 -15 23 -9 25 -8 25 9 0 17 -9 19 -28 6z"/>
<path d="M3898 23 c7 -3 16 -2 19 1 4 3 -2 6 -13 5 -11 0 -14 -3 -6 -6z"/>
<path d="M3898 3 c7 -3 16 -2 19 1 4 3 -2 6 -13 5 -11 0 -14 -3 -6 -6z"/>
</g>
</svg>
